<svg xmlns="http://www.w3.org/2000/svg" width="344" height="264" viewBox="0 0 344 264" fill="none">
<rect width="344" height="264" fill="#DD5767"/>
<path d="M218.047 85.7151H181.661C178.454 85.7151 175.854 88.3147 175.854 91.5214V127.908C175.854 131.114 178.454 133.714 181.661 133.714H218.047C221.254 133.714 223.853 131.114 223.853 127.908V91.5214C223.853 88.3147 221.254 85.7151 218.047 85.7151Z" fill="white"/>
<path d="M163.192 126.86H126.806C123.6 126.86 121 129.459 121 132.666V172.481C121 175.688 123.6 178.287 126.806 178.287H163.192C166.399 178.287 168.999 175.688 168.999 172.481V132.666C168.999 129.459 166.399 126.86 163.192 126.86Z" fill="white" fill-opacity="0.72"/>
<path d="M218.047 140.571H181.661C178.454 140.571 175.854 143.17 175.854 146.377V186.192C175.854 189.399 178.454 191.998 181.661 191.998H218.047C221.254 191.998 223.853 189.399 223.853 186.192V146.377C223.853 143.17 221.254 140.571 218.047 140.571Z" fill="white" fill-opacity="0.4"/>
<path d="M163.192 72H126.806C123.6 72 121 74.5996 121 77.8063V114.192C121 117.399 123.6 119.999 126.806 119.999H163.192C166.399 119.999 168.999 117.399 168.999 114.192V77.8063C168.999 74.5996 166.399 72 163.192 72Z" fill="white"/>
</svg>