<svg xmlns="http://www.w3.org/2000/svg" width="344" height="264" viewBox="0 0 344 264" fill="none">
<rect width="344" height="264" fill="#000157"/>
<path opacity="0.64" d="M123 121.411L172.412 156.706V141.588L123 106.294V121.411Z" fill="white"/>
<path d="M123 106.294L172.412 71V86.1176L123 121.412V106.294Z" fill="white"/>
<path d="M221.824 121.411L172.412 156.706V141.588L221.824 106.294V121.411Z" fill="white"/>
<path opacity="0.64" d="M221.824 106.294L172.412 71V86.1176L221.824 121.412V106.294Z" fill="white"/>
<path opacity="0.64" d="M123 156.706L172.412 192V176.882L123 141.588V156.706Z" fill="white"/>
<path d="M123 141.589L172.412 106.294V121.412L123 156.706V141.589Z" fill="white"/>
<path d="M221.824 156.706L172.412 192V176.882L221.824 141.588V156.706Z" fill="white"/>
<path opacity="0.64" d="M221.824 141.589L172.412 106.294V121.412L221.824 156.706V141.589Z" fill="white"/>
</svg>