<svg xmlns="http://www.w3.org/2000/svg" width="344" height="264" viewBox="0 0 344 264" fill="none">
<rect width="344" height="264" fill="#283E55"/>
<path opacity="0.181442" d="M172 175.999C208.451 175.999 238 174.384 238 172.391C238 170.397 208.451 168.782 172 168.782C135.549 168.782 106 170.397 106 172.391C106 174.384 135.549 175.999 172 175.999Z" fill="black"/>
<path d="M121.694 121.265L123.509 117.424L151.121 125.069L141.673 139.91L126.677 136.275L121.694 121.265Z" fill="#246A8B"/>
<path d="M114.561 154.304C113.275 155.856 109.898 160.784 112.666 167.059C112.666 167.059 113.301 167.988 113.328 166.753C112.966 163.472 113.74 160.653 115.236 159.923C115.967 164.235 117.165 168.389 118.772 172.334C118.772 172.836 121.406 173.243 124.655 173.243C127.904 173.243 130.537 172.836 130.537 172.334C131.863 165.502 137.656 160.291 144.923 160.291C152.132 160.291 158.146 165.368 159.48 172.234C159.48 173.087 163.958 173.779 169.482 173.779C175.006 173.779 179.484 173.087 179.552 172.208C177.984 168.178 177.125 163.799 177.125 159.22C177.125 155.447 177.708 151.81 178.791 148.392C178.806 148.305 178.821 148.219 178.836 148.133L178.582 148.794C178.677 148.478 178.778 148.166 178.886 147.856C182.233 129.766 197.75 127.142 197.75 127.142C199.199 126.739 200.669 126.518 202.191 126.518C210.616 126.518 217.446 133.3 217.446 141.667C217.446 148.691 212.632 154.598 206.101 156.313C203.998 156.904 202.702 159.34 202.702 162.134C202.702 165.373 204.815 167.999 207.42 167.999C207.746 167.999 208.064 167.958 208.398 167.826C222.586 164.856 233.236 152.534 233.236 137.561C233.236 134.278 232.765 131.1 231.816 128.128C223.891 104.799 201.676 88 175.509 88C169.711 88 164.107 88.8247 158.809 90.3622C158.699 90.2736 158.197 90.0429 157.959 89.8857C155.481 87.2808 123.734 88.6949 121.924 100.922C120.901 103.198 121.099 105.794 121.12 108.546C121.161 113.841 123.304 118.416 123.304 118.416C123.304 118.416 123.214 118.329 121.789 121.243C117.707 129.253 114.408 140.464 114.408 150.037C114.408 151.472 114.459 152.895 114.561 154.304Z" fill="url(#paint0_radial)"/>
<g filter="url(#filter0_i)">
<path d="M114.561 154.304C113.275 155.856 109.898 160.784 112.666 167.059C112.666 167.059 113.301 167.988 113.328 166.753C112.966 163.472 113.74 160.653 115.236 159.923C115.967 164.235 117.165 168.389 118.772 172.334C118.772 172.836 121.406 173.243 124.655 173.243C127.904 173.243 130.537 172.836 130.537 172.334C131.863 165.502 137.656 160.291 144.923 160.291C152.132 160.291 158.146 165.368 159.48 172.234C159.48 173.087 163.958 173.779 169.482 173.779C175.006 173.779 179.484 173.087 179.552 172.208C177.984 168.178 177.125 163.799 177.125 159.22C177.125 155.447 177.708 151.81 178.791 148.392C178.806 148.305 178.821 148.219 178.836 148.133L178.582 148.794C178.677 148.478 178.778 148.166 178.886 147.856C182.233 129.766 197.75 127.142 197.75 127.142C199.199 126.739 200.669 126.518 202.191 126.518C210.616 126.518 217.446 133.3 217.446 141.667C217.446 148.691 212.632 154.598 206.101 156.313C203.998 156.904 202.702 159.34 202.702 162.134C202.702 165.373 204.815 167.999 207.42 167.999C207.746 167.999 208.064 167.958 208.398 167.826C222.586 164.856 233.236 152.534 233.236 137.561C233.236 134.278 232.765 131.1 231.816 128.128C223.891 104.799 201.676 88 175.509 88C169.711 88 164.107 88.8247 158.809 90.3622C158.699 90.2736 158.197 90.0429 157.959 89.8857C155.481 87.2808 123.734 88.6949 121.924 100.922C120.901 103.198 121.099 105.794 121.12 108.546C121.161 113.841 123.304 118.416 123.304 118.416C123.304 118.416 123.214 118.329 121.789 121.243C117.707 129.253 114.408 140.464 114.408 150.037C114.408 151.472 114.459 152.895 114.561 154.304Z" fill="#5397D1"/>
</g>
<path d="M206.168 165.45C207.164 165.368 207.855 163.874 207.712 162.113C207.57 160.352 206.647 158.991 205.651 159.072C204.655 159.154 203.964 160.648 204.107 162.409C204.249 164.17 205.173 165.532 206.168 165.45Z" fill="black" fill-opacity="0.339334"/>
<path d="M178.306 115.759C179.644 116.062 180.954 116.434 182.23 116.869C182.208 116.862 182.188 116.854 182.166 116.847C180.91 116.421 179.622 116.057 178.306 115.759Z" fill="#D4D1CD"/>
<path d="M176.345 115.208C177.086 115.346 177.82 115.509 178.544 115.696C179.801 116.019 181.031 116.413 182.23 116.874C180.195 116.064 178.207 115.537 176.345 115.208Z" fill="#161616"/>
<path d="M178.823 120.606C178.858 120.584 178.893 120.561 178.928 120.539L179.182 120.375C179.365 120.251 179.54 120.116 179.714 119.983C179.856 119.873 179.996 119.766 180.131 119.652C180.264 119.54 180.391 119.422 180.519 119.305C180.676 119.158 180.832 119.011 180.983 118.857L181.12 118.723L181.104 118.725C183.015 116.691 184.192 113.972 184.192 110.977C184.192 108.612 183.577 106.431 182.329 104.61C180.249 101.466 176.662 99.3845 172.58 99.3845C166.146 99.3845 160.931 104.543 160.931 110.906C160.931 113.928 162.107 116.677 164.031 118.732C165.679 118.249 167.469 117.984 169.338 117.984C172.944 117.984 176.25 118.969 178.823 120.606Z" fill="white"/>
<path d="M170.876 106.544C171.052 107.701 172.048 108.592 173.263 108.592C174.601 108.592 175.686 107.515 175.686 106.187C175.686 105.728 175.55 105.303 175.324 104.937C178.396 105.131 180.83 107.66 180.83 110.757C180.83 113.982 178.195 116.597 174.945 116.597C171.695 116.597 169.059 113.982 169.059 110.757C169.059 109.099 169.759 107.607 170.876 106.544Z" fill="black"/>
<path fill-rule="evenodd" clip-rule="evenodd" d="M123.214 118.173C128.873 133.049 137.466 135.721 148.995 126.188C149.074 126.188 138.286 139.388 128.529 131.452C128.577 131.404 126.834 129.96 124.997 127.456C123.815 125.845 122.594 123.794 121.786 121.395C121.786 121.395 122.262 120.321 123.214 118.173Z" fill="black" fill-opacity="0.408798"/>
<defs>
<filter id="filter0_i" x="111.605" y="88" width="121.631" height="87.7792" filterUnits="userSpaceOnUse" color-interpolation-filters="sRGB">
<feFlood flood-opacity="0" result="BackgroundImageFix"/>
<feBlend mode="normal" in="SourceGraphic" in2="BackgroundImageFix" result="shape"/>
<feColorMatrix in="SourceAlpha" type="matrix" values="0 0 0 0 0 0 0 0 0 0 0 0 0 0 0 0 0 0 127 0" result="hardAlpha"/>
<feOffset dy="2"/>
<feGaussianBlur stdDeviation="6.5"/>
<feComposite in2="hardAlpha" operator="arithmetic" k2="-1" k3="1"/>
<feColorMatrix type="matrix" values="0 0 0 0 1 0 0 0 0 1 0 0 0 0 1 0 0 0 0.206805 0"/>
<feBlend mode="normal" in2="shape" result="effect1_innerShadow"/>
</filter>
<radialGradient id="paint0_radial" cx="0" cy="0" r="1" gradientUnits="userSpaceOnUse" gradientTransform="translate(248.216 154.614) rotate(90) scale(120.472 61.6642)">
<stop stop-color="#43AAE1"/>
<stop offset="1" stop-color="#2A77C3"/>
</radialGradient>
</defs>
</svg>