<svg xmlns="http://www.w3.org/2000/svg" width="344" height="264" viewBox="0 0 344 264" fill="none">
<rect width="344" height="264" fill="#2679FF"/>
<path d="M172.081 88C146.079 88 125 107.7 125 132C125 156.301 146.079 176 172.081 176C198.084 176 219.163 156.301 219.163 132C219.163 107.7 198.084 88 172.081 88Z" fill="white"/>
<path d="M193.9 132.017C193.9 120.589 184.291 111.325 172.438 111.325C160.585 111.325 150.977 120.589 150.977 132.017C150.977 143.444 160.585 152.708 172.438 152.708C184.291 152.708 193.9 143.444 193.9 132.017Z" fill="#2679FF"/>
<path d="M125 128.024L125.017 176L150.578 152.807C150.578 152.807 126.325 164.337 125 128.024Z" fill="white"/>
</svg>