<svg xmlns="http://www.w3.org/2000/svg" width="344" height="264" viewBox="0 0 344 264" fill="none">
<rect width="344" height="264" fill="#0C6DFF"/>
<path d="M137.125 99.0813V89H111V175H137.125V165.022H123.594V99.0813H137.125Z" fill="white"/>
<path d="M170.618 136.321L188.833 164.919H204.03L184.774 135.292C190.395 134.057 194.662 131.486 197.68 127.782C200.595 124.079 202.156 119.45 202.156 113.689C202.156 106.488 199.762 100.933 195.078 97.0239C190.29 93.1148 183.629 91.0574 175.094 91.0574H145.221V164.919H158.544V136.321H170.618ZM158.544 102.373H174.365C179.153 102.373 182.796 103.402 185.294 105.254C187.792 107.208 189.041 109.986 189.041 113.689C189.041 117.392 187.688 120.17 185.19 122.124C182.692 124.079 179.049 125.005 174.365 125.005H158.544V102.373Z" fill="white"/>
<path d="M220.717 165.022H207.186V175H233.311V89H207.186V99.0813H220.717V165.022Z" fill="white"/>
</svg>